<?xml version="1.0" standalone="no"?>
<!DOCTYPE svg PUBLIC "-//W3C//DTD SVG 20010904//EN"
 "http://www.w3.org/TR/2001/REC-SVG-20010904/DTD/svg10.dtd">
<svg version="1.0" xmlns="http://www.w3.org/2000/svg"
 width="48px" height="48px" viewBox="0 0 512.000000 512.000000"
 preserveAspectRatio="xMidYMid meet">

<g transform="translate(0.000000,512.000000) scale(0.100000,-0.100000)"
fill="#000000" stroke="none">
<path d="M1972 5110 c-145 -31 -255 -141 -254 -256 0 -57 37 -139 68 -151 27
-10 13 -21 -73 -53 -288 -107 -585 -296 -816 -519 -421 -406 -663 -905 -728
-1499 -15 -141 -7 -446 16 -592 154 -984 903 -1779 1869 -1985 186 -39 291
-50 506 -50 215 0 320 11 506 50 882 188 1595 874 1819 1749 47 185 65 314 72
517 19 569 -148 1088 -500 1554 -73 96 -304 330 -405 409 -355 279 -774 452
-1225 506 -98 12 -420 15 -485 4 l-42 -7 15 36 c31 75 11 170 -47 224 -60 56
-193 85 -296 63z m176 -176 c40 -26 20 -81 -23 -63 -54 21 -159 -3 -194 -44
-10 -13 -18 -14 -32 -6 -31 16 -23 55 17 85 66 51 175 64 232 28z m692 -807
c282 -49 535 -155 753 -315 62 -47 160 -131 165 -143 2 -4 -211 -169 -472
-368 l-475 -361 -43 16 c-24 8 -69 21 -101 27 l-59 12 -117 247 c-65 136 -124
254 -131 263 -16 19 -44 19 -59 1 -8 -9 -14 -106 -18 -296 l-6 -282 -51 -37
c-28 -21 -57 -45 -65 -54 -20 -24 -35 -22 -175 28 -70 25 -138 45 -151 45 -21
0 -45 -24 -45 -46 0 -4 39 -48 88 -98 142 -148 135 -136 119 -182 -8 -21 -17
-60 -21 -85 l-7 -47 -247 -117 c-248 -118 -282 -137 -282 -161 0 -37 23 -41
289 -49 144 -4 261 -9 261 -12 0 -3 -55 -77 -123 -166 -68 -89 -223 -294 -346
-455 l-223 -294 -25 24 c-44 41 -149 180 -207 276 -96 157 -186 372 -163 390
7 5 73 47 147 92 74 45 143 89 153 98 20 18 22 45 4 60 -7 6 -95 22 -196 36
-101 14 -187 28 -190 32 -11 11 -4 357 8 439 46 296 163 581 329 800 172 226
378 398 627 522 143 72 245 107 260 91 7 -7 51 -77 99 -155 48 -77 93 -146
101 -153 20 -16 54 -3 60 23 3 12 16 99 28 192 l23 170 39 7 c63 10 351 1 445
-15z m1114 -672 c63 -83 122 -177 172 -276 40 -80 107 -250 100 -256 -2 -2
-75 -48 -162 -102 -162 -99 -183 -120 -151 -152 8 -9 82 -23 193 -37 98 -13
184 -28 189 -33 14 -14 11 -325 -4 -434 -91 -642 -529 -1183 -1143 -1409 l-66
-24 -102 164 c-85 138 -105 164 -125 164 -13 0 -29 -8 -34 -18 -6 -11 -20 -95
-32 -188 -12 -93 -27 -175 -34 -182 -15 -17 -310 -18 -427 -2 -265 37 -526
137 -745 286 -104 71 -225 172 -221 185 6 14 940 719 954 719 8 0 30 -6 49
-14 19 -8 54 -18 79 -21 25 -4 52 -12 60 -19 8 -6 68 -123 133 -260 119 -250
138 -278 174 -255 17 10 26 139 28 395 1 195 1 194 61 234 19 13 47 34 62 48
l26 24 146 -52 c145 -51 178 -55 190 -23 9 22 -6 42 -119 160 l-97 103 15 47
c9 27 19 66 22 88 l7 40 256 121 c141 67 261 129 267 138 16 26 -7 50 -56 58
-24 3 -125 7 -224 8 -99 1 -199 5 -223 8 l-43 7 348 458 348 458 38 -43 c20
-24 61 -74 91 -113z m-1311 -631 c3 -4 -60 -57 -141 -119 -139 -107 -152 -121
-252 -253 -114 -152 -117 -153 -119 -52 -4 183 135 367 314 415 51 14 187 20
198 9z m346 -419 c2 -114 -54 -242 -139 -318 -89 -79 -243 -129 -339 -110
l-44 8 144 110 c135 103 151 120 254 253 118 155 123 157 124 57z"/>
</g>
</svg>
